<?xml version="1.0" encoding="UTF-8" standalone="no"?>
<svg
   xmlns:dc="http://purl.org/dc/elements/1.1/"
   xmlns:cc="http://creativecommons.org/ns#"
   xmlns:rdf="http://www.w3.org/1999/02/22-rdf-syntax-ns#"
   xmlns:svg="http://www.w3.org/2000/svg"
   xmlns="http://www.w3.org/2000/svg"
   xmlns:sodipodi="http://sodipodi.sourceforge.net/DTD/sodipodi-0.dtd"
   xmlns:inkscape="http://www.inkscape.org/namespaces/inkscape"
   enable-background="new 0 0 500 500"
   height="500px"
   id="Layer_1"
   version="1.1"
   viewBox="0 0 500 500"
   width="500px"
   xml:space="preserve"
   inkscape:version="0.91 r13725"
   sodipodi:docname="artist.svg"
   inkscape:export-filename="/home/a/droid/SMP/misc/artist.png"
   inkscape:export-xdpi="8.6400003"
   inkscape:export-ydpi="8.6400003"><metadata
     id="metadata9"><rdf:RDF><cc:Work
         rdf:about=""><dc:format>image/svg+xml</dc:format><dc:type
           rdf:resource="http://purl.org/dc/dcmitype/StillImage" /></cc:Work></rdf:RDF></metadata><defs
     id="defs7" /><sodipodi:namedview
     pagecolor="#ffffff"
     bordercolor="#666666"
     borderopacity="1"
     objecttolerance="10"
     gridtolerance="10"
     guidetolerance="10"
     inkscape:pageopacity="0"
     inkscape:pageshadow="2"
     inkscape:window-width="1257"
     inkscape:window-height="829"
     id="namedview5"
     showgrid="false"
     inkscape:zoom="0.944"
     inkscape:cx="104.9419"
     inkscape:cy="299.63665"
     inkscape:window-x="356"
     inkscape:window-y="83"
     inkscape:window-maximized="0"
     inkscape:current-layer="Layer_1" /><path
     d="M 392.04678,308.21603 C 375.13613,287.79511 354.6799,274.53415 325.36946,267.01001 l -27.46318,88.97649 c 0,8.19593 -7.2516,14.90557 -16.10758,14.90557 -8.85331,0 -16.10491,-6.70964 -16.10491,-14.90557 l 0,-70.7965 c 0,-10.28264 -9.02173,-18.63195 -20.13447,-18.63195 -11.11185,0 -20.1327,8.34931 -20.1327,18.63195 l 0,70.7965 c 0,8.19593 -7.2516,14.90557 -16.1058,14.90557 -8.85686,0 -16.10846,-6.70964 -16.10846,-14.90557 l -27.46319,-88.97649 c -29.31132,7.59714 -49.76666,20.7851 -66.67554,41.20602 -6.685187,8.04828 -10.317637,24.21949 -10.555187,32.86737 0.0798,2.23518 0,4.84439 0,7.4495 l 0,14.90556 0,14.90639 c 0,16.46895 14.416327,29.80784 32.214257,29.80784 l 249.65146,0 c 17.79705,0 32.21604,-13.33889 32.21604,-29.80784 l 0,-14.90639 0,-14.90556 c 0,-2.60511 -0.0789,-5.21432 0,-7.4495 -0.24376,-8.64788 -3.87177,-24.81991 -10.55342,-32.86737 z M 160.99898,129.28612 c 0,43.52159 29.32018,107.46327 84.56034,107.46327 54.28019,0 84.55856,-63.94168 84.55856,-107.46327 0,-43.51994 -37.85085,-78.845595 -84.55856,-78.845595 -46.70771,0 -84.56034,35.325655 -84.56034,78.845595 z"
     id="path3"
     inkscape:connector-curvature="0"
     style="clip-rule:evenodd;fill:#f30000;fill-rule:evenodd;fill-opacity:1" /><circle
     style="opacity:1;fill:none;fill-opacity:1;stroke:#f30000;stroke-width:19.6069603;stroke-linejoin:miter;stroke-miterlimit:4;stroke-dasharray:none;stroke-opacity:1"
     id="path5633"
     cx="250"
     cy="250"
     r="240.19652" /></svg>