<?xml version="1.0" encoding="UTF-8" standalone="no"?>
<svg
   xmlns:dc="http://purl.org/dc/elements/1.1/"
   xmlns:cc="http://creativecommons.org/ns#"
   xmlns:rdf="http://www.w3.org/1999/02/22-rdf-syntax-ns#"
   xmlns:svg="http://www.w3.org/2000/svg"
   xmlns="http://www.w3.org/2000/svg"
   xmlns:sodipodi="http://sodipodi.sourceforge.net/DTD/sodipodi-0.dtd"
   xmlns:inkscape="http://www.inkscape.org/namespaces/inkscape"
   enable-background="new 0 0 64 64"
   height="64px"
   id="Layer_1"
   version="1.1"
   viewBox="0 0 64 64"
   width="64px"
   xml:space="preserve"
   inkscape:version="0.48.5 r10040"
   sodipodi:docname="1496972639_pen-checkbox.svg"><metadata
     id="metadata17"><rdf:RDF><cc:Work
         rdf:about=""><dc:format>image/svg+xml</dc:format><dc:type
           rdf:resource="http://purl.org/dc/dcmitype/StillImage" /><dc:title></dc:title></cc:Work></rdf:RDF></metadata><defs
     id="defs15" /><sodipodi:namedview
     pagecolor="#ffffff"
     bordercolor="#666666"
     borderopacity="1"
     objecttolerance="10"
     gridtolerance="10"
     guidetolerance="10"
     inkscape:pageopacity="0"
     inkscape:pageshadow="2"
     inkscape:window-width="640"
     inkscape:window-height="480"
     id="namedview13"
     showgrid="false"
     inkscape:zoom="3.6875"
     inkscape:cx="32"
     inkscape:cy="32.135593"
     inkscape:window-x="0"
     inkscape:window-y="0"
     inkscape:window-maximized="0"
     inkscape:current-layer="Layer_1" /><g
     id="g3"
     style="fill:#ff0000"><path
       d="M55.736,13.636l-4.368-4.362c-0.451-0.451-1.044-0.677-1.636-0.677c-0.592,0-1.184,0.225-1.635,0.676l-3.494,3.484   l7.639,7.626l3.494-3.483C56.639,15.998,56.639,14.535,55.736,13.636z"
       id="path5"
       style="fill:#ff0000" /><polygon
       points="21.922,35.396 29.562,43.023 50.607,22.017 42.967,14.39  "
       id="polygon7"
       style="fill:#ff0000" /><polygon
       points="20.273,37.028 18.642,46.28 27.913,44.654  "
       id="polygon9"
       style="fill:#ff0000" /><path
       d="M41.393,50.403H12.587V21.597h20.329l5.01-5H10.82c-1.779,0-3.234,1.455-3.234,3.234v32.339   c0,1.779,1.455,3.234,3.234,3.234h32.339c1.779,0,3.234-1.455,3.234-3.234V29.049l-5,4.991V50.403z"
       id="path11"
       style="fill:#ff0000" /></g></svg>