<?xml version="1.0" encoding="UTF-8" standalone="no"?>
<svg
   xmlns:dc="http://purl.org/dc/elements/1.1/"
   xmlns:cc="http://creativecommons.org/ns#"
   xmlns:rdf="http://www.w3.org/1999/02/22-rdf-syntax-ns#"
   xmlns:svg="http://www.w3.org/2000/svg"
   xmlns="http://www.w3.org/2000/svg"
   xmlns:sodipodi="http://sodipodi.sourceforge.net/DTD/sodipodi-0.dtd"
   xmlns:inkscape="http://www.inkscape.org/namespaces/inkscape"
   width="331pt"
   height="331pt"
   viewBox="0 0 331 331"
   id="svg2"
   version="1.1"
   inkscape:version="0.91 r13725"
   sodipodi:docname="Hammer_and_sickle.svg"
   inkscape:export-filename="/home/a/droid/SMP/misc/Hammer_and_sickle.png"
   inkscape:export-xdpi="10.441088"
   inkscape:export-ydpi="10.441088">
  <metadata
     id="metadata12">
    <rdf:RDF>
      <cc:Work
         rdf:about="">
        <dc:format>image/svg+xml</dc:format>
        <dc:type
           rdf:resource="http://purl.org/dc/dcmitype/StillImage" />
        <dc:title />
      </cc:Work>
    </rdf:RDF>
  </metadata>
  <defs
     id="defs10" />
  <sodipodi:namedview
     pagecolor="#ffffff"
     bordercolor="#666666"
     borderopacity="1"
     objecttolerance="10"
     gridtolerance="10"
     guidetolerance="10"
     inkscape:pageopacity="0"
     inkscape:pageshadow="2"
     inkscape:window-width="956"
     inkscape:window-height="767"
     id="namedview8"
     showgrid="false"
     inkscape:zoom="1.1407855"
     inkscape:cx="14.025424"
     inkscape:cy="206.875"
     inkscape:window-x="1"
     inkscape:window-y="0"
     inkscape:window-maximized="0"
     inkscape:current-layer="svg2" />
  <rect
     fill="#C00"
     width="331"
     height="331"
     id="rect4"
     style="fill:#cc2d00;fill-opacity:0" />
  <path
     d="m 165.48767,15.46968 c 30.28036,10.786606 58.30746,27.796128 81.94778,49.566437 22.67525,21.131531 41.91496,47.019043 51.07166,76.929843 6.20619,19.23346 4.92918,40.01732 0.82663,59.54277 -4.09822,18.18931 -12.10129,35.52775 -23.7548,50.11879 13.21688,12.92251 26.30712,25.9743 39.55832,38.86277 -1.76477,6.60297 -4.46931,13.35099 -9.89871,17.80224 -4.53987,3.91868 -10.35211,5.81333 -16.072,7.23779 -12.94106,-13.44513 -25.94774,-26.82268 -38.89608,-40.26105 -16.12936,11.01859 -35.59366,16.82701 -55.03062,17.68546 -24.48131,1.08209 -48.95378,-6.80918 -68.92876,-20.82625 -10.7713,-7.40274 -20.48002,-16.25426 -29.386518,-25.79425 -1.525451,1.50055 -3.190323,2.84704 -4.902237,4.1295 0.424515,3.20129 0.884476,6.39847 1.325882,9.60054 -3.342621,0.19229 -6.679748,1.00963 -9.488357,2.89311 -8.665711,5.49181 -14.683441,14.01709 -20.834214,22.02049 -7.627059,9.9016 -14.482208,20.89213 -25.111389,27.90563 -6.441436,3.97925 -15.972961,2.29736 -19.917785,-4.39115 -4.12587,-6.56221 -1.745835,-15.03198 2.698074,-20.78855 10.86116,-15.96306 30.253235,-22.78556 42.394196,-37.4925 3.157745,-3.95123 5.545669,-8.53093 6.730285,-13.46106 3.100998,0.19817 6.202317,0.39974 9.304383,0.60175 2.627426,-2.6649 5.267654,-5.31627 7.885055,-7.98979 2.918259,-0.0754 5.892334,0.23651 8.773575,-0.32607 3.007553,-2.65266 5.40524,-5.91408 8.12138,-8.85225 2.97509,0.8335 4.66571,3.62412 6.8187,5.61696 13.30737,12.11968 28.52502,22.68173 45.86947,28.06787 22.17939,7.10536 46.8891,4.84806 67.6941,-5.49075 C 182.61364,205.47345 141.08113,162.43051 99.469097,119.46664 90.137432,129.2919 80.842099,139.15485 71.377285,148.85191 59.818081,137.0598 48.146038,125.37897 36.528225,113.64493 58.426541,91.724823 80.569775,70.050811 102.58882,48.252014 c 19.0366,5.182495 38.04879,10.456116 57.10335,15.576751 -13.02089,11.821229 -26.25696,23.402558 -39.32341,35.173066 43.41859,42.566409 86.62239,85.357669 130.11059,127.855849 10.49822,-12.77303 16.40651,-29.03735 17.21028,-45.50384 1.48093,-21.78817 -3.5608,-43.463 -10.74287,-63.90136 C 246.79441,90.479278 227.38447,68.27301 206.2883,49.170913 193.10296,37.451263 179.51396,26.169159 165.48767,15.46968 z m 0,0"
     fill="#ffd600"
     id="path6"
     style="fill:#f30000;fill-opacity:1" />
</svg>
