<?xml version="1.0" encoding="UTF-8" standalone="no"?>
<svg
   xmlns:dc="http://purl.org/dc/elements/1.1/"
   xmlns:cc="http://creativecommons.org/ns#"
   xmlns:rdf="http://www.w3.org/1999/02/22-rdf-syntax-ns#"
   xmlns:svg="http://www.w3.org/2000/svg"
   xmlns="http://www.w3.org/2000/svg"
   xmlns:sodipodi="http://sodipodi.sourceforge.net/DTD/sodipodi-0.dtd"
   xmlns:inkscape="http://www.inkscape.org/namespaces/inkscape"
   enable-background="new 0 0 32 32"
   height="32px"
   id="Слой_1"
   version="1.1"
   viewBox="0 0 32 32"
   width="32px"
   xml:space="preserve"
   inkscape:version="0.48.5 r10040"
   sodipodi:docname="loop.svg"
   inkscape:export-filename="/home/a/droid/SMP/misc/loop.png"
   inkscape:export-xdpi="189.34193"
   inkscape:export-ydpi="189.34193"><metadata
     id="metadata20"><rdf:RDF><cc:Work
         rdf:about=""><dc:format>image/svg+xml</dc:format><dc:type
           rdf:resource="http://purl.org/dc/dcmitype/StillImage" /><dc:title></dc:title></cc:Work></rdf:RDF></metadata><defs
     id="defs18" /><sodipodi:namedview
     pagecolor="#ffffff"
     bordercolor="#666666"
     borderopacity="1"
     objecttolerance="10"
     gridtolerance="10"
     guidetolerance="10"
     inkscape:pageopacity="0"
     inkscape:pageshadow="2"
     inkscape:window-width="1214"
     inkscape:window-height="865"
     id="namedview16"
     showgrid="false"
     inkscape:zoom="12.158874"
     inkscape:cx="3.4391384"
     inkscape:cy="22.820484"
     inkscape:window-x="370"
     inkscape:window-y="77"
     inkscape:window-maximized="0"
     inkscape:current-layer="Слой_1" /><path
     clip-rule="evenodd"
     d="m 1.7340269,22.021441 24.2763831,0 c 0.95805,0 1.734027,-0.702314 1.734027,-1.567665 l 0,-14.1089837 c 0,-0.8661352 -0.775977,-1.5676648 -1.734027,-1.5676648 l -4.335069,0 c -0.555755,0 -0.867013,0.3550753 -0.867013,0.783832 0,0.4287566 0.294784,0.7940227 0.867013,0.7940227 l 3.277312,0 c 0.579165,0 1.049086,0.4248368 1.049086,0.9484367 l 0,12.1666481 c 0,0.523599 -0.469921,0.948436 -1.049086,0.948436 l -22.1704062,0.0243 c -0.5791648,0 -1.049087,-0.424837 -1.049087,-0.948437 l 0,-12.1909462 c 0,-0.5235999 0.4699222,-0.9484367 1.049087,-0.9484367 l 9.8596792,0 L 11.091,7.7704057 c -0.338135,0.3096136 -0.338135,0.8104827 0,1.1200963 0.339003,0.3088297 0.887822,0.3088297 1.225957,0 L 15.35221,6.1135612 c 0.338136,-0.3088296 0.338136,-0.8104827 0,-1.1200963 0,0 0,0 -8.67e-4,0 L 12.262454,2.2136222 c -0.338136,-0.3088296 -0.887822,-0.3088296 -1.225958,0 -0.338135,0.3096137 -0.338135,0.8104827 0,1.1193133 l 1.631441,1.443408 -10.9339101,0 C 0.77597709,4.7763435 0,5.4778731 0,6.3440084 L 0,20.452992 c 0,0.866135 0.77597709,1.568449 1.7340269,1.568449 z"
     id="Loop"
     inkscape:connector-curvature="0"
     style="fill:#f30000;fill-opacity:1;fill-rule:evenodd;stroke:#f30000;stroke-opacity:1"
     sodipodi:nodetypes="sssssssssssccssscccccccccccssss"
     inkscape:export-xdpi="189.34193"
     inkscape:export-ydpi="189.34193" /><g
     id="g4" /><g
     id="g6" /><g
     id="g8" /><g
     id="g10" /><g
     id="g12" /><g
     id="g14" /></svg>