<?xml version="1.0" encoding="UTF-8" standalone="no"?>
<svg
   xmlns:dc="http://purl.org/dc/elements/1.1/"
   xmlns:cc="http://creativecommons.org/ns#"
   xmlns:rdf="http://www.w3.org/1999/02/22-rdf-syntax-ns#"
   xmlns:svg="http://www.w3.org/2000/svg"
   xmlns="http://www.w3.org/2000/svg"
   xmlns:sodipodi="http://sodipodi.sourceforge.net/DTD/sodipodi-0.dtd"
   xmlns:inkscape="http://www.inkscape.org/namespaces/inkscape"
   enable-background="new 0 0 64 64"
   height="64px"
   id="Layer_1"
   version="1.1"
   viewBox="0 0 64 64"
   width="64px"
   xml:space="preserve"
   inkscape:version="0.48.5 r10040"
   sodipodi:docname="1496972650_music-note-sound.svg"><metadata
     id="metadata9"><rdf:RDF><cc:Work
         rdf:about=""><dc:format>image/svg+xml</dc:format><dc:type
           rdf:resource="http://purl.org/dc/dcmitype/StillImage" /><dc:title></dc:title></cc:Work></rdf:RDF></metadata><defs
     id="defs7" /><sodipodi:namedview
     pagecolor="#ffffff"
     bordercolor="#666666"
     borderopacity="1"
     objecttolerance="10"
     gridtolerance="10"
     guidetolerance="10"
     inkscape:pageopacity="0"
     inkscape:pageshadow="2"
     inkscape:window-width="640"
     inkscape:window-height="480"
     id="namedview5"
     showgrid="false"
     inkscape:zoom="3.6875"
     inkscape:cx="32"
     inkscape:cy="32.135593"
     inkscape:window-x="627"
     inkscape:window-y="166"
     inkscape:window-maximized="0"
     inkscape:current-layer="Layer_1" /><path
     d="M23.727,16.403v4.84v5.058v14.236c-1.268-0.777-2.754-1.233-4.35-1.233c-4.612,0-8.353,3.74-8.353,8.349  c0,4.614,3.74,8.354,8.353,8.354c4.61,0,8.349-3.739,8.35-8.352h0V25.151l21.25-6.109V33.33c-1.268-0.777-2.754-1.233-4.35-1.233  c-4.614,0-8.353,3.739-8.353,8.348c0,4.613,3.739,8.354,8.353,8.354c4.344,0,7.914-3.325,8.31-7.57h0.04V17.892v-3.586V7.993  L23.727,16.403z"
     id="path3"
     style="fill:#ff0000" /></svg>