<?xml version="1.0" encoding="UTF-8" standalone="no"?>
<svg
   xmlns:dc="http://purl.org/dc/elements/1.1/"
   xmlns:cc="http://creativecommons.org/ns#"
   xmlns:rdf="http://www.w3.org/1999/02/22-rdf-syntax-ns#"
   xmlns:svg="http://www.w3.org/2000/svg"
   xmlns="http://www.w3.org/2000/svg"
   xmlns:sodipodi="http://sodipodi.sourceforge.net/DTD/sodipodi-0.dtd"
   xmlns:inkscape="http://www.inkscape.org/namespaces/inkscape"
   enable-background="new 0 0 64 64"
   height="64px"
   id="PAUSE"
   version="1.1"
   viewBox="0 0 64 64"
   width="64px"
   xml:space="preserve"
   inkscape:version="0.48.3.1 r9886"
   sodipodi:docname="1421109395_audio-video-outline-pause.svg"
   inkscape:export-filename="/mnt/data/galaxy/SMP/app/src/main/res/drawable-hdpi/1421109395_audio-video-outline-pause.png"
   inkscape:export-xdpi="90"
   inkscape:export-ydpi="90"><metadata
     id="metadata15"><rdf:RDF><cc:Work
         rdf:about=""><dc:format>image/svg+xml</dc:format><dc:type
           rdf:resource="http://purl.org/dc/dcmitype/StillImage" /><dc:title></dc:title></cc:Work></rdf:RDF></metadata><defs
     id="defs13" /><sodipodi:namedview
     pagecolor="#ffffff"
     bordercolor="#666666"
     borderopacity="1"
     objecttolerance="10"
     gridtolerance="10"
     guidetolerance="10"
     inkscape:pageopacity="0"
     inkscape:pageshadow="2"
     inkscape:window-width="1466"
     inkscape:window-height="927"
     id="namedview11"
     showgrid="false"
     inkscape:zoom="7.375"
     inkscape:cx="28.094191"
     inkscape:cy="31.276758"
     inkscape:window-x="0"
     inkscape:window-y="0"
     inkscape:window-maximized="0"
     inkscape:current-layer="PAUSE" /><path
     d="M 32,5 C 46.888,5 59,17.112 59,32 59,46.888 46.888,59 32,59 17.112,59 5,46.888 5,32 5,17.112 17.112,5 32,5 M 30,0 C 13.433,0 0,15.432 0,32 0,48.568 15.433,64 32,64 48.567,64 64,48.568 64,32 64,15.432 48.567,0 32,0 z"
     id="path3"
     inkscape:connector-curvature="0"
     sodipodi:nodetypes="csssccssscc" /><path
     sodipodi:nodetypes="sssssssssscssss"
     inkscape:connector-curvature="0"
     id="path7"
     d="m 39,17.563 c -2.75,0 -5,2.25 -5,5 l 0,18.875 c 0,2.75 2.25,5 5,5 2.75,0 5,-2.25 5,-5 l 0,-18.875 c 0,-2.75 -2.25,-5 -5,-5 z m 2,23.875 c 0,1.1 -0.9,2 -2,2 -1.1,0 -2,-0.9 -2,-2 L 37,32 37,22.563 c 0,-1.1 0.9,-2 2,-2 1.1,0 2,0.9 2,2 z"
     style="stroke:#000000;stroke-opacity:1;stroke-width:1.6;stroke-miterlimit:4;stroke-dasharray:none" /><path
     inkscape:connector-curvature="0"
     id="path9"
     d="m 25,17.563 c -2.75,0 -5,2.25 -5,5 v 18.875 c 0,2.75 2.25,5 5,5 2.75,0 5,-2.25 5,-5 V 22.563 c 0,-2.75 -2.25,-5 -5,-5 z m 2,23.875 c 0,1.1 -0.9,2 -2,2 -1.1,0 -2,-0.9 -2,-2 V 22.563 c 0,-1.1 0.9,-2 2,-2 1.1,0 2,0.9 2,2 v 18.875 z"
     style="stroke:#000000;stroke-opacity:1;stroke-width:1.6;stroke-miterlimit:4;stroke-dasharray:none" /></svg>