<?xml version="1.0" encoding="UTF-8" standalone="no"?>
<svg
   xmlns:dc="http://purl.org/dc/elements/1.1/"
   xmlns:cc="http://creativecommons.org/ns#"
   xmlns:rdf="http://www.w3.org/1999/02/22-rdf-syntax-ns#"
   xmlns:svg="http://www.w3.org/2000/svg"
   xmlns="http://www.w3.org/2000/svg"
   xmlns:sodipodi="http://sodipodi.sourceforge.net/DTD/sodipodi-0.dtd"
   xmlns:inkscape="http://www.inkscape.org/namespaces/inkscape"
   enable-background="new 0 0 64 64"
   height="64px"
   id="PLAY"
   version="1.1"
   viewBox="0 0 64 64"
   width="64px"
   xml:space="preserve"
   inkscape:version="0.48.3.1 r9886"
   sodipodi:docname="1421109385_audio-video-outline-play.svg"
   inkscape:export-filename="/mnt/data/galaxy/SMP/app/src/main/res/drawable-hdpi/1421109385_audio-video-outline-play.png"
   inkscape:export-xdpi="90"
   inkscape:export-ydpi="90"><metadata
     id="metadata11"><rdf:RDF><cc:Work
         rdf:about=""><dc:format>image/svg+xml</dc:format><dc:type
           rdf:resource="http://purl.org/dc/dcmitype/StillImage" /><dc:title></dc:title></cc:Work></rdf:RDF></metadata><defs
     id="defs9" /><sodipodi:namedview
     pagecolor="#ffffff"
     bordercolor="#666666"
     borderopacity="1"
     objecttolerance="10"
     gridtolerance="10"
     guidetolerance="10"
     inkscape:pageopacity="0"
     inkscape:pageshadow="2"
     inkscape:window-width="1680"
     inkscape:window-height="987"
     id="namedview7"
     showgrid="false"
     inkscape:zoom="7.375"
     inkscape:cx="6.5762712"
     inkscape:cy="32"
     inkscape:window-x="0"
     inkscape:window-y="0"
     inkscape:window-maximized="1"
     inkscape:current-layer="PLAY" /><path
     d="M 32,5 C 46.888,5 59,17.112 59,32 59,46.888 46.888,59 32,59 17.112,59 5,46.888 5,32 5,17.112 17.112,5 32,5 M 32,0 C 15.433,0 0,15.432 0,32 0,48.568 15.433,64 32,64 48.567,64 64,48.568 64,32 64,15.432 48.567,0 32,0 z"
     id="path3"
     inkscape:connector-curvature="0"
     sodipodi:nodetypes="csssccssscc" /><path
     d="M43.987,28.745L28.013,18.232C25.256,16.418,23,17.635,23,20.935V43.06c0,3.3,2.259,4.521,5.021,2.714l15.959-10.444  C46.741,33.521,46.744,30.559,43.987,28.745z M41.858,33.124l-14.185,9.283C26.753,43.01,26,42.603,26,41.503V22.491  c0-1.1,0.752-1.505,1.671-0.9l14.19,9.338C42.78,31.533,42.779,32.521,41.858,33.124z"
     id="path5"
     style="fill:#000000;fill-opacity:1;stroke:#000000;stroke-opacity:1;stroke-width:1.6;stroke-miterlimit:4;stroke-dasharray:none" /></svg>