<?xml version="1.0" encoding="UTF-8" standalone="no"?>
<svg
   xmlns:dc="http://purl.org/dc/elements/1.1/"
   xmlns:cc="http://creativecommons.org/ns#"
   xmlns:rdf="http://www.w3.org/1999/02/22-rdf-syntax-ns#"
   xmlns:svg="http://www.w3.org/2000/svg"
   xmlns="http://www.w3.org/2000/svg"
   xmlns:sodipodi="http://sodipodi.sourceforge.net/DTD/sodipodi-0.dtd"
   xmlns:inkscape="http://www.inkscape.org/namespaces/inkscape"
   enable-background="new 0 0 500 500"
   height="500px"
   id="Layer_1"
   version="1.1"
   viewBox="0 0 500 500"
   width="500px"
   xml:space="preserve"
   inkscape:version="0.48.5 r10040"
   sodipodi:docname="rescan.svg"
   inkscape:export-filename="/home/a/droid/SMP/misc/rescan.png"
   inkscape:export-xdpi="5.7600002"
   inkscape:export-ydpi="5.7600002"><metadata
     id="metadata3826"><rdf:RDF><cc:Work
         rdf:about=""><dc:format>image/svg+xml</dc:format><dc:type
           rdf:resource="http://purl.org/dc/dcmitype/StillImage" /><dc:title></dc:title></cc:Work></rdf:RDF></metadata><defs
     id="defs3824" /><sodipodi:namedview
     pagecolor="#ffffff"
     bordercolor="#666666"
     borderopacity="1"
     objecttolerance="10"
     gridtolerance="10"
     guidetolerance="10"
     inkscape:pageopacity="0"
     inkscape:pageshadow="2"
     inkscape:window-width="777"
     inkscape:window-height="601"
     id="namedview3822"
     showgrid="false"
     inkscape:zoom="0.472"
     inkscape:cx="291.31356"
     inkscape:cy="250"
     inkscape:window-x="181"
     inkscape:window-y="71"
     inkscape:window-maximized="0"
     inkscape:current-layer="Layer_1" /><path
     clip-rule="evenodd"
     d="M281.525,228.102l104.758-78.042  c12.082-12.085,12.082-24.259,0-36.342L281.525,35.674c-3.274-2.359-7.359-3.725-11.723-3.725c-10.992,0-19.803,8.536-19.803,19.083  v35.429C144.611,86.737,59.205,172.046,59.205,277.258c0,105.396,85.672,190.793,191.248,190.793  c98.03,0,178.809-73.498,189.977-168.169c0.092-0.275,0.367-3.187,0.367-4.455c0-9.992-8.181-18.169-18.261-18.169h-45.793  c-14.993,0-26.349,10.355-27.893,18.986c-8.811,46.156-49.519,80.954-98.397,80.954c-55.329,0-100.127-44.701-100.127-99.94  c0-55.064,44.523-99.667,99.674-99.941v35.437c0,10.541,8.811,19.076,19.803,19.076C274.166,231.83,278.251,230.471,281.525,228.102  z"
     fill="#010101"
     fill-rule="evenodd"
     id="path3820"
     style="fill:#f30000;fill-opacity:1" /></svg>