<?xml version="1.0" encoding="UTF-8" standalone="no"?>
<svg
   xmlns:dc="http://purl.org/dc/elements/1.1/"
   xmlns:cc="http://creativecommons.org/ns#"
   xmlns:rdf="http://www.w3.org/1999/02/22-rdf-syntax-ns#"
   xmlns:svg="http://www.w3.org/2000/svg"
   xmlns="http://www.w3.org/2000/svg"
   xmlns:sodipodi="http://sodipodi.sourceforge.net/DTD/sodipodi-0.dtd"
   xmlns:inkscape="http://www.inkscape.org/namespaces/inkscape"
   enable-background="new 0 0 64 64"
   height="64px"
   id="BACK"
   version="1.1"
   viewBox="0 0 64 64"
   width="64px"
   xml:space="preserve"
   inkscape:version="0.48.3.1 r9886"
   sodipodi:docname="1421108828_audio-video-outline-rewind.svg"><metadata
     id="metadata11"><rdf:RDF><cc:Work
         rdf:about=""><dc:format>image/svg+xml</dc:format><dc:type
           rdf:resource="http://purl.org/dc/dcmitype/StillImage" /></cc:Work></rdf:RDF></metadata><defs
     id="defs9" /><sodipodi:namedview
     pagecolor="#ffffff"
     bordercolor="#666666"
     borderopacity="1"
     objecttolerance="10"
     gridtolerance="10"
     guidetolerance="10"
     inkscape:pageopacity="0"
     inkscape:pageshadow="2"
     inkscape:window-width="1680"
     inkscape:window-height="987"
     id="namedview7"
     showgrid="false"
     inkscape:zoom="7.375"
     inkscape:cx="6.9830508"
     inkscape:cy="32"
     inkscape:window-x="0"
     inkscape:window-y="0"
     inkscape:window-maximized="1"
     inkscape:current-layer="BACK" /><path
     d="M 32,5 C 46.888,5 59,17.112 59,32 59,46.888 46.888,59 32,59 17.112,59 5,46.888 5,32 5,17.112 17.112,5 32,5 M 32,0 C 15.433,0 0,15.432 0,32 0,48.568 15.433,64 32,64 48.567,64 64,48.568 64,32 64,15.432 48.567,0 32,0 z"
     id="path3"
     inkscape:connector-curvature="0"
     sodipodi:nodetypes="csssccssscc" /><path
     d="M16.021,35.325l11.959,7.826c2.762,1.808,5.02,0.586,5.02-2.714V37.93l7.98,5.222c2.762,1.808,5.02,0.586,5.02-2.714V23.563  c0-3.3-2.256-4.516-5.012-2.702L33,26.117v-2.555c0-3.3-2.256-4.516-5.012-2.702l-11.977,7.881  C13.256,30.555,13.259,33.518,16.021,35.325z M18.139,30.933l10.191-6.705c0.918-0.604,1.67-0.199,1.67,0.9v4.554  c0,1.1,0.752,1.505,1.672,0.9l9.658-6.354c0.918-0.604,1.67-0.199,1.67,0.9v13.761c0,1.1-0.752,1.507-1.674,0.905l-9.652-6.318  C30.754,32.874,30,33.281,30,34.381v4.508c0,1.1-0.752,1.507-1.674,0.904l-10.184-6.665C17.221,32.525,17.221,31.537,18.139,30.933z  "
     id="path5"
     style="stroke-width:1.5;stroke-miterlimit:4;stroke-dasharray:none;stroke:#000000;stroke-opacity:1;fill:#000000;fill-opacity:1;fill-rule:nonzero" /></svg>