<?xml version="1.0" encoding="UTF-8" standalone="no"?>
<svg
   xmlns:dc="http://purl.org/dc/elements/1.1/"
   xmlns:cc="http://creativecommons.org/ns#"
   xmlns:rdf="http://www.w3.org/1999/02/22-rdf-syntax-ns#"
   xmlns:svg="http://www.w3.org/2000/svg"
   xmlns="http://www.w3.org/2000/svg"
   xmlns:sodipodi="http://sodipodi.sourceforge.net/DTD/sodipodi-0.dtd"
   xmlns:inkscape="http://www.inkscape.org/namespaces/inkscape"
   enable-background="new 0 0 500 500"
   height="500px"
   id="Layer_1"
   version="1.1"
   viewBox="0 0 500 500"
   width="500px"
   xml:space="preserve"
   inkscape:version="0.91 r13725"
   sodipodi:docname="shake.svg"><metadata
     id="metadata9"><rdf:RDF><cc:Work
         rdf:about=""><dc:format>image/svg+xml</dc:format><dc:type
           rdf:resource="http://purl.org/dc/dcmitype/StillImage" /></cc:Work></rdf:RDF></metadata><defs
     id="defs7" /><sodipodi:namedview
     pagecolor="#ffffff"
     bordercolor="#666666"
     borderopacity="1"
     objecttolerance="10"
     gridtolerance="10"
     guidetolerance="10"
     inkscape:pageopacity="0"
     inkscape:pageshadow="2"
     inkscape:window-width="1376"
     inkscape:window-height="980"
     id="namedview5"
     showgrid="false"
     inkscape:zoom="0.3337544"
     inkscape:cx="560.26152"
     inkscape:cy="553.35271"
     inkscape:window-x="0"
     inkscape:window-y="0"
     inkscape:window-maximized="0"
     inkscape:current-layer="Layer_1" /><path
     d="m 180.72682,416.64878 c 0,19.29767 7.44062,34.92764 16.62715,34.92764 l 103.91951,0 c 9.18607,0 16.62669,-15.62997 16.62669,-34.92764 l 0,-362.394947 c 0,-12.048787 -4.65571,-21.830256 -10.39117,-21.830256 -5.73545,0 -10.39301,9.781469 -10.39301,21.830256 l 0,21.830254 -99.76202,0 c -9.18653,0 -16.62715,15.631903 -16.62715,34.930523 l 0,305.63417 z m 29.92951,-296.90322 77.31522,0 c 5.07025,0 9.14444,8.5589 9.14444,19.21405 l 0,92.55921 c 0,10.65514 -4.07419,19.21405 -9.14444,19.21405 l -77.31522,0 c -5.07022,0 -9.14533,-8.55795 -9.14533,-19.21405 l 0,-92.55921 c 0,-10.65515 4.07511,-19.21405 9.14533,-19.21405 z m -9.14533,187.7481 c 0,-12.04879 4.65616,-21.83218 10.39162,-21.83218 5.73546,0 10.39209,9.78339 10.39209,21.83218 0,12.04974 -4.65663,21.82833 -10.39209,21.82833 -5.73546,0 -10.39162,-9.77859 -10.39162,-21.82833 z m 37.41131,0 c 0,-12.04879 4.65618,-21.83218 10.39164,-21.83218 5.73546,0 10.39254,9.78339 10.39254,21.83218 0,12.04974 -4.65708,21.82833 -10.39254,21.82833 -5.73592,0 -10.39164,-9.77859 -10.39164,-21.82833 z m 37.41088,0 c 0,-12.04879 4.65527,-21.83218 10.39302,-21.83218 5.73499,0 10.39024,9.78339 10.39024,21.83218 0,12.04974 -4.65525,21.82833 -10.39024,21.82833 -5.73822,0 -10.39302,-9.77859 -10.39302,-21.82833 z M 201.511,386.08278 c 0,-12.0488 4.65616,-21.82834 10.39162,-21.82834 5.73546,0 10.39209,9.77954 10.39209,21.82834 0,12.05263 -4.65663,21.83216 -10.39209,21.83216 -5.73546,0 -10.39162,-9.77953 -10.39162,-21.83216 z m 37.41131,0 c 0,-12.0488 4.65618,-21.82834 10.39164,-21.82834 5.73546,0 10.39254,9.77954 10.39254,21.82834 0,12.05263 -4.65708,21.83216 -10.39254,21.83216 -5.73592,0 -10.39164,-9.77953 -10.39164,-21.83216 z m 37.41088,0 c 0,-12.0488 4.65527,-21.82834 10.39302,-21.82834 5.73499,0 10.39024,9.77954 10.39024,21.82834 0,12.05263 -4.65525,21.83216 -10.39024,21.83216 -5.73822,0 -10.39302,-9.77953 -10.39302,-21.83216 z"
     id="path3"
     style="clip-rule:evenodd;fill:#f30000;fill-opacity:1;fill-rule:evenodd"
     inkscape:connector-curvature="0" /><ellipse
     style="opacity:1;fill:#f30000;fill-opacity:1;stroke:#f30000;stroke-width:17.53306961;stroke-linejoin:miter;stroke-miterlimit:4;stroke-dasharray:none;stroke-opacity:1"
     id="path4137"
     cx="149.45766"
     cy="254.25412"
     rx="3.3252316"
     ry="86.623642" /><path
     style="opacity:1;fill:#f30000;fill-opacity:1;stroke:#f30000;stroke-width:17.53306961;stroke-linejoin:miter;stroke-miterlimit:4;stroke-dasharray:none;stroke-opacity:1"
     d="m 350.06857,167.62954 a 3.3252314,86.623654 0 0 0 -3.32692,86.62417 3.3252314,86.623654 0 0 0 3.32692,86.62415 3.3252314,86.623654 0 0 0 3.32492,-86.62415 3.3252314,86.623654 0 0 0 -3.32492,-86.62417 z"
     id="path4137-8"
     inkscape:connector-curvature="0" /><path
     style="opacity:1;fill:none;fill-opacity:1;stroke:#f30000;stroke-width:19.6069603;stroke-linejoin:miter;stroke-miterlimit:4;stroke-dasharray:none;stroke-opacity:1"
     d="M 250 9.8027344 A 240.19652 240.19652 0 0 0 9.8027344 250 A 240.19652 240.19652 0 0 0 250 490.19727 A 240.19652 240.19652 0 0 0 490.19727 250 A 240.19652 240.19652 0 0 0 250 9.8027344 z "
     id="path5633" /></svg>