<?xml version="1.0" encoding="UTF-8" standalone="no"?>
<svg
   xmlns:dc="http://purl.org/dc/elements/1.1/"
   xmlns:cc="http://creativecommons.org/ns#"
   xmlns:rdf="http://www.w3.org/1999/02/22-rdf-syntax-ns#"
   xmlns:svg="http://www.w3.org/2000/svg"
   xmlns="http://www.w3.org/2000/svg"
   xmlns:sodipodi="http://sodipodi.sourceforge.net/DTD/sodipodi-0.dtd"
   xmlns:inkscape="http://www.inkscape.org/namespaces/inkscape"
   enable-background="new 0 0 500 500"
   height="500px"
   id="Layer_1"
   version="1.1"
   viewBox="0 0 500 500"
   width="500px"
   xml:space="preserve"
   inkscape:version="0.48.5 r10040"
   sodipodi:docname="skull.svg"
   inkscape:export-filename="/home/a/droid/SMP/misc/skull.png"
   inkscape:export-xdpi="5.7600002"
   inkscape:export-ydpi="5.7600002"><metadata
     id="metadata4377"><rdf:RDF><cc:Work
         rdf:about=""><dc:format>image/svg+xml</dc:format><dc:type
           rdf:resource="http://purl.org/dc/dcmitype/StillImage" /><dc:title></dc:title></cc:Work></rdf:RDF></metadata><defs
     id="defs4375" /><sodipodi:namedview
     pagecolor="#ffffff"
     bordercolor="#666666"
     borderopacity="1"
     objecttolerance="10"
     gridtolerance="10"
     guidetolerance="10"
     inkscape:pageopacity="0"
     inkscape:pageshadow="2"
     inkscape:window-width="777"
     inkscape:window-height="480"
     id="namedview4373"
     showgrid="false"
     inkscape:zoom="0.472"
     inkscape:cx="250"
     inkscape:cy="250"
     inkscape:window-x="330"
     inkscape:window-y="209"
     inkscape:window-maximized="0"
     inkscape:current-layer="Layer_1" /><path
     clip-rule="evenodd"
     d="M146.017,431.711c0,20.078,16.262,36.34,36.34,36.34h136.283  c20.079,0,36.341-16.262,36.341-36.34v-10.63c0-8.536,5.911-15.723,13.896-17.622c43.616-6.726,76.961-44.433,76.961-89.86  c0-20.441-6.729-39.34-18.172-54.513v-62.143c0-91.13-79.322-164.994-177.167-164.994S73.332,105.813,73.332,196.943v62.143  c-11.445,15.173-18.17,34.071-18.17,54.513c0,45.428,33.343,83.135,76.951,89.86c7.996,1.899,13.905,9.086,13.905,17.622V431.711z   M127.845,250c0-25.074,20.354-45.426,45.428-45.426c25.073,0,45.427,20.352,45.427,45.426c0,25.072-20.354,45.427-45.427,45.427  C148.199,295.427,127.845,275.072,127.845,250z M282.297,250c0-25.074,20.354-45.426,45.43-45.426  c25.074,0,45.428,20.352,45.428,45.426c0,25.072-20.354,45.427-45.428,45.427C302.65,295.427,282.297,275.072,282.297,250z   M205.703,347.031l31.984-31.977c7.088-7.092,18.535-7.092,25.623,0l31.978,31.977c6.903,6.9,6.903,18.08,0,24.985  c-6.904,6.9-18.081,6.9-24.984,0L250.5,352.213l-19.812,19.804c-6.894,6.9-18.074,6.9-24.984,0  C198.808,365.111,198.808,353.932,205.703,347.031z"
     fill="#010101"
     fill-rule="evenodd"
     id="path4371"
     style="fill:#f30000;fill-opacity:1" /></svg>