<?xml version="1.0" encoding="UTF-8" standalone="no"?>
<!-- Created with Inkscape (http://www.inkscape.org/) -->

<svg
   xmlns:dc="http://purl.org/dc/elements/1.1/"
   xmlns:cc="http://creativecommons.org/ns#"
   xmlns:rdf="http://www.w3.org/1999/02/22-rdf-syntax-ns#"
   xmlns:svg="http://www.w3.org/2000/svg"
   xmlns="http://www.w3.org/2000/svg"
   xmlns:sodipodi="http://sodipodi.sourceforge.net/DTD/sodipodi-0.dtd"
   xmlns:inkscape="http://www.inkscape.org/namespaces/inkscape"
   width="120mm"
   height="120mm"
   viewBox="0 0 425.19686 425.19684"
   id="svg2"
   version="1.1"
   inkscape:version="0.91 r13725"
   sodipodi:docname="tree.svg"
   inkscape:export-filename="/home/a/droid/SMP/app/src/main/res/drawable-hdpi/ic_menu_tree.png"
   inkscape:export-xdpi="13.546667"
   inkscape:export-ydpi="13.546667">
  <defs
     id="defs4" />
  <sodipodi:namedview
     id="base"
     pagecolor="#ffffff"
     bordercolor="#666666"
     borderopacity="1.0"
     inkscape:pageopacity="0.0"
     inkscape:pageshadow="2"
     inkscape:zoom="0.98994949"
     inkscape:cx="93.893034"
     inkscape:cy="297.43267"
     inkscape:document-units="px"
     inkscape:current-layer="layer1"
     showgrid="false"
     inkscape:window-width="1680"
     inkscape:window-height="987"
     inkscape:window-x="0"
     inkscape:window-y="0"
     inkscape:window-maximized="1" />
  <metadata
     id="metadata7">
    <rdf:RDF>
      <cc:Work
         rdf:about="">
        <dc:format>image/svg+xml</dc:format>
        <dc:type
           rdf:resource="http://purl.org/dc/dcmitype/StillImage" />
        <dc:title />
      </cc:Work>
    </rdf:RDF>
  </metadata>
  <g
     inkscape:label="Calque 1"
     inkscape:groupmode="layer"
     id="layer1"
     transform="translate(0,-627.16535)">
    <ellipse
       style="opacity:1;fill:#f30000;fill-opacity:1;stroke:#f30000;stroke-width:17.17157173;stroke-linejoin:miter;stroke-miterlimit:4;stroke-dasharray:none;stroke-opacity:1"
       id="path3378"
       cx="117.60539"
       cy="871.56354"
       rx="15.945031"
       ry="11.038867" />
    <ellipse
       style="opacity:1;fill:#f30000;fill-opacity:1;stroke:#f30000;stroke-width:17.17157173;stroke-linejoin:miter;stroke-miterlimit:4;stroke-dasharray:none;stroke-opacity:1"
       id="path3380"
       cx="148.26891"
       cy="853.16541"
       rx="25.757359"
       ry="17.784842" />
    <ellipse
       style="opacity:1;fill:#f30000;fill-opacity:1;stroke:#f30000;stroke-width:17.17157173;stroke-linejoin:miter;stroke-miterlimit:4;stroke-dasharray:none;stroke-opacity:1"
       id="path3382"
       cx="112.08595"
       cy="820.04883"
       rx="12.878679"
       ry="14.10522" />
    <ellipse
       style="opacity:1;fill:#f30000;fill-opacity:1;stroke:#f30000;stroke-width:17.17157173;stroke-linejoin:miter;stroke-miterlimit:4;stroke-dasharray:none;stroke-opacity:1"
       id="path3384"
       cx="138.45657"
       cy="788.77197"
       rx="18.398113"
       ry="14.71849" />
    <ellipse
       style="opacity:1;fill:#f30000;fill-opacity:1;stroke:#f30000;stroke-width:17.17157173;stroke-linejoin:miter;stroke-miterlimit:4;stroke-dasharray:none;stroke-opacity:1"
       id="path3408"
       cx="166.05374"
       cy="766.08099"
       rx="16.558302"
       ry="14.10522" />
    <ellipse
       style="opacity:1;fill:#f30000;fill-opacity:1;stroke:#f30000;stroke-width:17.17157173;stroke-linejoin:miter;stroke-miterlimit:4;stroke-dasharray:none;stroke-opacity:1"
       id="path3410"
       cx="213.27557"
       cy="786.93219"
       rx="23.304276"
       ry="16.558302" />
    <ellipse
       style="opacity:1;fill:#f30000;fill-opacity:1;stroke:#f30000;stroke-width:17.17157173;stroke-linejoin:miter;stroke-miterlimit:4;stroke-dasharray:none;stroke-opacity:1"
       id="path3412"
       cx="274.6026"
       cy="788.77197"
       rx="20.851196"
       ry="18.398113" />
    <ellipse
       style="opacity:1;fill:#f30000;fill-opacity:1;stroke:#f30000;stroke-width:17.17157173;stroke-linejoin:miter;stroke-miterlimit:4;stroke-dasharray:none;stroke-opacity:1"
       id="path3414"
       cx="225.54097"
       cy="769.76062"
       rx="18.398113"
       ry="20.237925" />
    <ellipse
       style="opacity:1;fill:#f30000;fill-opacity:1;stroke:#f30000;stroke-width:17.17157173;stroke-linejoin:miter;stroke-miterlimit:4;stroke-dasharray:none;stroke-opacity:1"
       id="path3416"
       cx="189.35803"
       cy="750.74927"
       rx="20.237925"
       ry="13.49195" />
    <ellipse
       style="opacity:1;fill:#f30000;fill-opacity:1;stroke:#f30000;stroke-width:17.17157173;stroke-linejoin:miter;stroke-miterlimit:4;stroke-dasharray:none;stroke-opacity:1"
       id="path3418"
       cx="303.42627"
       cy="820.66205"
       rx="12.878679"
       ry="13.49195" />
    <ellipse
       style="opacity:1;fill:#f30000;fill-opacity:1;stroke:#f30000;stroke-width:17.17157173;stroke-linejoin:miter;stroke-miterlimit:4;stroke-dasharray:none;stroke-opacity:1"
       id="path3420"
       cx="309.55899"
       cy="858.07159"
       rx="11.652138"
       ry="12.878679" />
    <ellipse
       style="opacity:1;fill:#f30000;fill-opacity:1;stroke:#f30000;stroke-width:17.17157173;stroke-linejoin:miter;stroke-miterlimit:4;stroke-dasharray:none;stroke-opacity:1"
       id="path3422"
       cx="250.68506"
       cy="837.83362"
       rx="26.370628"
       ry="20.851196" />
    <ellipse
       style="opacity:1;fill:#f30000;fill-opacity:1;stroke:#f30000;stroke-width:17.17157173;stroke-linejoin:miter;stroke-miterlimit:4;stroke-dasharray:none;stroke-opacity:1"
       id="path3424"
       cx="276.44241"
       cy="856.84503"
       rx="16.558302"
       ry="15.331761" />
    <ellipse
       style="opacity:1;fill:#f30000;fill-opacity:1;stroke:#f30000;stroke-width:17.17157173;stroke-linejoin:miter;stroke-miterlimit:4;stroke-dasharray:none;stroke-opacity:1"
       id="path3428"
       cx="177.09262"
       cy="827.40802"
       rx="50.901443"
       ry="25.144089" />
    <ellipse
       style="opacity:1;fill:#f30000;fill-opacity:1;stroke:#f30000;stroke-width:17.17157173;stroke-linejoin:miter;stroke-miterlimit:4;stroke-dasharray:none;stroke-opacity:1"
       id="path3430"
       cx="178.31915"
       cy="797.97107"
       rx="20.237925"
       ry="15.331761" />
    <ellipse
       style="opacity:1;fill:#f30000;fill-opacity:1;stroke:#f30000;stroke-width:17.17157173;stroke-linejoin:miter;stroke-miterlimit:4;stroke-dasharray:none;stroke-opacity:1"
       id="path3432"
       cx="247.00543"
       cy="815.75592"
       rx="37.409496"
       ry="25.757359" />
    <ellipse
       style="opacity:1;fill:#f30000;fill-opacity:1;stroke:#f30000;stroke-width:14.29365349;stroke-linejoin:miter;stroke-miterlimit:4;stroke-dasharray:none;stroke-opacity:1"
       id="path3434"
       cx="157.09068"
       cy="880.14929"
       rx="21.676882"
       ry="16.15745" />
    <g
       id="g4971"
       style="fill:none;fill-opacity:1" />
    <g
       id="g5010"
       transform="matrix(0.8585786,0,0,0.8585786,-24.673362,435.95322)">
      <path
         style="fill:none;fill-opacity:1;fill-rule:evenodd;stroke:#ff0000;stroke-width:0.88342452px;stroke-linecap:butt;stroke-linejoin:miter;stroke-opacity:1"
         d="m 260.04585,530.94901 c 4.22444,115.77486 -18.10803,113.23391 -18.10803,113.23391 -11.10218,1.61433 -31.99898,2.6747 -36.64572,2.81471 -14.45162,0.43544 -12.60161,11.22377 -12.60161,11.22377"
         id="path3442"
         inkscape:connector-curvature="0"
         sodipodi:nodetypes="cssc" />
      <path
         style="fill:none;fill-opacity:1;fill-rule:evenodd;stroke:#ff0000;stroke-width:1px;stroke-linecap:butt;stroke-linejoin:miter;stroke-opacity:1"
         d="m 291.93409,538.19456 c -0.78736,102.3822 12.85098,104.65232 12.85098,104.65232 0,0 35.48254,1.21048 47.02902,5.03589 18.36214,6.08348 16.93108,10.34309 16.93108,10.34309"
         id="path3444"
         inkscape:connector-curvature="0"
         sodipodi:nodetypes="ccsc" />
      <path
         style="fill:none;fill-opacity:1;fill-rule:evenodd;stroke:#ff0000;stroke-width:1px;stroke-linecap:butt;stroke-linejoin:miter;stroke-opacity:1"
         d="m 192.14286,658.07649 177.14285,0"
         id="path3446"
         inkscape:connector-curvature="0" />
      <path
         style="fill:none;fill-opacity:1;fill-rule:evenodd;stroke:#ff0000;stroke-width:1px;stroke-linecap:butt;stroke-linejoin:miter;stroke-opacity:1"
         d="m 291.89032,538.39216 c 12.10369,-36.23854 17.30083,-24.07525 29.22575,-36.74424"
         id="path3448"
         inkscape:connector-curvature="0"
         sodipodi:nodetypes="cc" />
      <path
         style="fill:none;fill-opacity:1;fill-rule:evenodd;stroke:#ff0000;stroke-width:1px;stroke-linecap:butt;stroke-linejoin:miter;stroke-opacity:1"
         d="m 299.82143,496.82649 c -10.31391,8.74259 -18.98607,13.23144 -19.10714,26.60714 -4.92912,-13.84637 -4.16099,-17.43455 -19.55358,-32.23214"
         id="path3450"
         inkscape:connector-curvature="0"
         sodipodi:nodetypes="ccc" />
      <path
         sodipodi:nodetypes="cc"
         inkscape:connector-curvature="0"
         id="path4999"
         d="m 260.02166,531.33411 c -2.70412,-11.44551 -7.87881,-17.01783 -18.59309,-24.32905"
         style="fill:none;fill-rule:evenodd;stroke:#ff0000;stroke-width:1px;stroke-linecap:butt;stroke-linejoin:miter;stroke-opacity:1" />
    </g>
    <path
       style="opacity:1;fill:#d50000;fill-opacity:1;stroke:#d50000;stroke-width:2.1682384;stroke-linejoin:miter;stroke-miterlimit:3.29999995;stroke-dasharray:none;stroke-opacity:1"
       d="m 141.58096,998.69197 c 0.32605,-2.43089 1.42931,-3.82436 4.11739,-5.20049 2.39883,-1.22811 1.83738,-1.16089 17.65386,-2.11176 10.85617,-0.65261 20.62342,-1.71424 21.91457,-2.38196 2.71674,-1.4048 5.74937,-6.02052 7.69625,-11.71376 4.8059,-14.05381 6.87405,-35.80995 6.50826,-68.46458 l -0.19474,-17.3844 -1.12763,-3.18063 c -0.62019,-1.74935 -1.77565,-4.26912 -2.56767,-5.59949 -1.70131,-2.85766 -6.21293,-7.51534 -9.3473,-9.64991 -1.22577,-0.83477 -2.45241,-2.00562 -2.72586,-2.60188 -0.27345,-0.59627 -1.27333,-2.09319 -2.22194,-3.3265 l -1.72475,-2.24238 0.88303,-1.73087 0.88302,-1.73087 3.37134,-0.27595 c 2.87875,-0.23563 7.51724,-0.83976 14.02218,-1.82629 1.49021,-0.226 1.66609,-0.0984 5.02738,3.64621 5.73871,6.39325 7.70713,9.83698 10.53803,18.43625 0.76554,2.32544 1.62879,4.22807 1.91834,4.22807 0.3134,0 0.73832,-1.23557 1.05,-3.0532 0.9774,-5.69975 3.39266,-9.12667 10.68689,-15.16322 3.29887,-2.73007 4.9517,-3.83475 5.42059,-3.62287 2.78548,1.25872 8.28731,2.80652 11.7326,3.30068 l 4.11965,0.59089 -1.95142,1.42646 c -1.07328,0.78454 -3.46792,2.19264 -5.32144,3.1291 -6.87791,3.47496 -10.01201,7.85101 -14.87117,20.76417 l -2.03975,5.42059 0.49344,20.59827 c 0.27139,11.32904 0.69022,23.23268 0.93072,26.45251 1.7119,22.91854 5.11587,38.67532 9.14232,42.31922 0.61456,0.55619 2.29901,0.78817 7.85034,1.08129 9.76355,0.51566 21.32834,1.61911 27.01661,2.5778 7.76683,1.30907 16.74016,4.89956 19.53462,7.81633 l 1.22499,1.2786 -74.94245,0 -74.94246,0 0.24216,-1.80543 z"
       id="path5018"
       inkscape:connector-curvature="0" />
  </g>
</svg>
