<?xml version="1.0" encoding="UTF-8" standalone="no"?>
<!-- Created with Inkscape (http://www.inkscape.org/) -->

<svg
   xmlns:dc="http://purl.org/dc/elements/1.1/"
   xmlns:cc="http://creativecommons.org/ns#"
   xmlns:rdf="http://www.w3.org/1999/02/22-rdf-syntax-ns#"
   xmlns:svg="http://www.w3.org/2000/svg"
   xmlns="http://www.w3.org/2000/svg"
   xmlns:sodipodi="http://sodipodi.sourceforge.net/DTD/sodipodi-0.dtd"
   xmlns:inkscape="http://www.inkscape.org/namespaces/inkscape"
   width="120mm"
   height="120mm"
   viewBox="0 0 425.19686 425.19684"
   id="svg2"
   version="1.1"
   inkscape:version="0.91 r13725"
   sodipodi:docname="tree.svg"
   inkscape:export-filename="/home/a/droid/SMP/app/src/main/res/drawable-hdpi/ic_menu_tree.png"
   inkscape:export-xdpi="13.546667"
   inkscape:export-ydpi="13.546667">
  <defs
     id="defs4" />
  <sodipodi:namedview
     id="base"
     pagecolor="#ffffff"
     bordercolor="#666666"
     borderopacity="1.0"
     inkscape:pageopacity="0.0"
     inkscape:pageshadow="2"
     inkscape:zoom="0.7"
     inkscape:cx="122.36774"
     inkscape:cy="510.08276"
     inkscape:document-units="px"
     inkscape:current-layer="layer1"
     showgrid="false"
     inkscape:window-width="1680"
     inkscape:window-height="987"
     inkscape:window-x="0"
     inkscape:window-y="0"
     inkscape:window-maximized="1" />
  <metadata
     id="metadata7">
    <rdf:RDF>
      <cc:Work
         rdf:about="">
        <dc:format>image/svg+xml</dc:format>
        <dc:type
           rdf:resource="http://purl.org/dc/dcmitype/StillImage" />
        <dc:title></dc:title>
      </cc:Work>
    </rdf:RDF>
  </metadata>
  <g
     inkscape:label="Calque 1"
     inkscape:groupmode="layer"
     id="layer1"
     transform="translate(0,-627.16535)">
    <ellipse
       style="opacity:1;fill:#f30000;fill-opacity:1;stroke:#f30000;stroke-width:20;stroke-linejoin:miter;stroke-miterlimit:4;stroke-dasharray:none;stroke-opacity:1"
       id="path3378"
       cx="102.85716"
       cy="843.07648"
       rx="18.571428"
       ry="12.857142" />
    <ellipse
       style="opacity:1;fill:#f30000;fill-opacity:1;stroke:#f30000;stroke-width:20;stroke-linejoin:miter;stroke-miterlimit:4;stroke-dasharray:none;stroke-opacity:1"
       id="path3380"
       cx="138.57144"
       cy="821.64789"
       rx="30"
       ry="20.714285" />
    <ellipse
       style="opacity:1;fill:#f30000;fill-opacity:1;stroke:#f30000;stroke-width:20;stroke-linejoin:miter;stroke-miterlimit:4;stroke-dasharray:none;stroke-opacity:1"
       id="path3382"
       cx="96.428589"
       cy="783.07648"
       rx="15"
       ry="16.428572" />
    <ellipse
       style="opacity:1;fill:#f30000;fill-opacity:1;stroke:#f30000;stroke-width:20;stroke-linejoin:miter;stroke-miterlimit:4;stroke-dasharray:none;stroke-opacity:1"
       id="path3384"
       cx="127.14287"
       cy="746.64789"
       rx="21.428572"
       ry="17.142857" />
    <ellipse
       style="opacity:1;fill:#f30000;fill-opacity:1;stroke:#f30000;stroke-width:20;stroke-linejoin:miter;stroke-miterlimit:4;stroke-dasharray:none;stroke-opacity:1"
       id="path3408"
       cx="159.28572"
       cy="720.2193"
       rx="19.285715"
       ry="16.428572" />
    <ellipse
       style="opacity:1;fill:#f30000;fill-opacity:1;stroke:#f30000;stroke-width:20;stroke-linejoin:miter;stroke-miterlimit:4;stroke-dasharray:none;stroke-opacity:1"
       id="path3410"
       cx="214.28572"
       cy="744.505"
       rx="27.142857"
       ry="19.285715" />
    <ellipse
       style="opacity:1;fill:#f30000;fill-opacity:1;stroke:#f30000;stroke-width:20;stroke-linejoin:miter;stroke-miterlimit:4;stroke-dasharray:none;stroke-opacity:1"
       id="path3412"
       cx="285.71429"
       cy="746.64789"
       rx="24.285715"
       ry="21.428572" />
    <ellipse
       style="opacity:1;fill:#f30000;fill-opacity:1;stroke:#f30000;stroke-width:20;stroke-linejoin:miter;stroke-miterlimit:4;stroke-dasharray:none;stroke-opacity:1"
       id="path3414"
       cx="228.57143"
       cy="724.505"
       rx="21.428572"
       ry="23.571428" />
    <ellipse
       style="opacity:1;fill:#f30000;fill-opacity:1;stroke:#f30000;stroke-width:20;stroke-linejoin:miter;stroke-miterlimit:4;stroke-dasharray:none;stroke-opacity:1"
       id="path3416"
       cx="186.42859"
       cy="702.36218"
       rx="23.571428"
       ry="15.714286" />
    <ellipse
       style="opacity:1;fill:#f30000;fill-opacity:1;stroke:#f30000;stroke-width:20;stroke-linejoin:miter;stroke-miterlimit:4;stroke-dasharray:none;stroke-opacity:1"
       id="path3418"
       cx="319.28568"
       cy="783.79071"
       rx="15"
       ry="15.714286" />
    <ellipse
       style="opacity:1;fill:#f30000;fill-opacity:1;stroke:#f30000;stroke-width:20;stroke-linejoin:miter;stroke-miterlimit:4;stroke-dasharray:none;stroke-opacity:1"
       id="path3420"
       cx="326.42853"
       cy="827.36218"
       rx="13.571428"
       ry="15" />
    <ellipse
       style="opacity:1;fill:#f30000;fill-opacity:1;stroke:#f30000;stroke-width:20;stroke-linejoin:miter;stroke-miterlimit:4;stroke-dasharray:none;stroke-opacity:1"
       id="path3422"
       cx="257.85715"
       cy="803.79071"
       rx="30.714285"
       ry="24.285715" />
    <ellipse
       style="opacity:1;fill:#f30000;fill-opacity:1;stroke:#f30000;stroke-width:20;stroke-linejoin:miter;stroke-miterlimit:4;stroke-dasharray:none;stroke-opacity:1"
       id="path3424"
       cx="287.85715"
       cy="825.93359"
       rx="19.285715"
       ry="17.857143" />
    <ellipse
       style="opacity:1;fill:#f30000;fill-opacity:1;stroke:#f30000;stroke-width:20;stroke-linejoin:miter;stroke-miterlimit:4;stroke-dasharray:none;stroke-opacity:1"
       id="path3428"
       cx="172.14287"
       cy="791.64789"
       rx="59.285713"
       ry="29.285715" />
    <ellipse
       style="opacity:1;fill:#f30000;fill-opacity:1;stroke:#f30000;stroke-width:20;stroke-linejoin:miter;stroke-miterlimit:4;stroke-dasharray:none;stroke-opacity:1"
       id="path3430"
       cx="173.57144"
       cy="757.36218"
       rx="23.571428"
       ry="17.857143" />
    <ellipse
       style="opacity:1;fill:#f30000;fill-opacity:1;stroke:#f30000;stroke-width:20;stroke-linejoin:miter;stroke-miterlimit:4;stroke-dasharray:none;stroke-opacity:1"
       id="path3432"
       cx="253.57143"
       cy="778.07648"
       rx="43.57143"
       ry="30" />
    <ellipse
       style="opacity:1;fill:#f30000;fill-opacity:1;stroke:#f30000;stroke-width:16.64804268;stroke-linejoin:miter;stroke-miterlimit:4;stroke-dasharray:none;stroke-opacity:1"
       id="path3434"
       cx="148.8463"
       cy="853.07648"
       rx="25.247406"
       ry="18.818836" />
    <g
       id="g4971"
       style="fill:none;fill-opacity:1" />
    <g
       id="g5010"
       transform="translate(-62.857136,335.71428)">
      <path
         style="fill:none;fill-opacity:1;fill-rule:evenodd;stroke:#ff0000;stroke-width:0.88342452px;stroke-linecap:butt;stroke-linejoin:miter;stroke-opacity:1"
         d="m 260.04585,530.94901 c 4.22444,115.77486 -18.10803,113.23391 -18.10803,113.23391 -11.10218,1.61433 -31.99898,2.6747 -36.64572,2.81471 -14.45162,0.43544 -12.60161,11.22377 -12.60161,11.22377"
         id="path3442"
         inkscape:connector-curvature="0"
         sodipodi:nodetypes="cssc" />
      <path
         style="fill:none;fill-opacity:1;fill-rule:evenodd;stroke:#ff0000;stroke-width:1px;stroke-linecap:butt;stroke-linejoin:miter;stroke-opacity:1"
         d="m 291.93409,538.19456 c -0.78736,102.3822 12.85098,104.65232 12.85098,104.65232 0,0 35.48254,1.21048 47.02902,5.03589 18.36214,6.08348 16.93108,10.34309 16.93108,10.34309"
         id="path3444"
         inkscape:connector-curvature="0"
         sodipodi:nodetypes="ccsc" />
      <path
         style="fill:none;fill-opacity:1;fill-rule:evenodd;stroke:#ff0000;stroke-width:1px;stroke-linecap:butt;stroke-linejoin:miter;stroke-opacity:1"
         d="m 192.14286,658.07649 177.14285,0"
         id="path3446"
         inkscape:connector-curvature="0" />
      <path
         style="fill:none;fill-opacity:1;fill-rule:evenodd;stroke:#ff0000;stroke-width:1px;stroke-linecap:butt;stroke-linejoin:miter;stroke-opacity:1"
         d="m 291.89032,538.39216 c 12.10369,-36.23854 17.30083,-24.07525 29.22575,-36.74424"
         id="path3448"
         inkscape:connector-curvature="0"
         sodipodi:nodetypes="cc" />
      <path
         style="fill:none;fill-opacity:1;fill-rule:evenodd;stroke:#ff0000;stroke-width:1px;stroke-linecap:butt;stroke-linejoin:miter;stroke-opacity:1"
         d="m 299.82143,496.82649 c -10.31391,8.74259 -18.98607,13.23144 -19.10714,26.60714 -4.92912,-13.84637 -4.16099,-17.43455 -19.55358,-32.23214"
         id="path3450"
         inkscape:connector-curvature="0"
         sodipodi:nodetypes="ccc" />
      <path
         sodipodi:nodetypes="cc"
         inkscape:connector-curvature="0"
         id="path4999"
         d="m 260.02166,531.33411 c -2.70412,-11.44551 -7.87881,-17.01783 -18.59309,-24.32905"
         style="fill:none;fill-rule:evenodd;stroke:#ff0000;stroke-width:1px;stroke-linecap:butt;stroke-linejoin:miter;stroke-opacity:1" />
    </g>
    <path
       style="opacity:1;fill:#d50000;fill-opacity:1;stroke:#d50000;stroke-width:2.52538133;stroke-linejoin:miter;stroke-miterlimit:3.29999995;stroke-dasharray:none;stroke-opacity:1"
       d="m 130.78189,991.14495 c 0.37975,-2.8313 1.66474,-4.4543 4.79558,-6.0571 2.79396,-1.4304 2.14003,-1.3521 20.56173,-2.4596 12.64436,-0.7601 24.02042,-1.9966 25.52425,-2.7743 3.16423,-1.6362 6.69638,-7.0122 8.96394,-13.6432 5.59751,-16.3687 8.00631,-41.70841 7.58027,-79.74178 l -0.22681,-20.24788 -1.31337,-3.70453 c -0.72235,-2.03749 -2.06813,-4.97231 -2.99061,-6.52181 -1.98154,-3.32837 -7.23629,-8.75324 -10.88694,-11.2394 -1.42768,-0.97227 -2.85636,-2.33598 -3.17486,-3.03046 -0.31849,-0.69448 -1.48306,-2.43797 -2.58792,-3.87442 l -2.00885,-2.61174 1.02848,-2.01597 1.02847,-2.01597 3.92665,-0.3214 c 3.35293,-0.27445 8.75545,-0.97809 16.33185,-2.12711 1.73567,-0.26323 1.94053,-0.11465 5.85547,4.2468 6.68397,7.44632 8.97662,11.45728 12.27381,21.47299 0.89164,2.70847 1.89708,4.92449 2.23432,4.92449 0.36502,0 0.85993,-1.43908 1.22296,-3.55611 1.13839,-6.63858 3.95148,-10.62997 12.44718,-17.66083 3.84225,-3.17976 5.76733,-4.4664 6.31345,-4.21962 3.24429,1.46605 9.65236,3.2688 13.66514,3.84436 l 4.79822,0.68821 -2.27284,1.66142 c -1.25007,0.91377 -4.03915,2.55381 -6.19797,3.64452 -8.01081,4.04734 -11.66114,9.14419 -17.32069,24.18435 l -2.37572,6.31345 0.57471,23.99113 c 0.31609,13.19511 0.80391,27.05946 1.08403,30.80965 1.99387,26.69359 5.95853,45.04576 10.6482,49.28986 0.71579,0.6478 2.67769,0.918 9.14342,1.2594 11.37175,0.6006 24.84145,1.8858 31.46667,3.0024 9.04614,1.5247 19.49752,5.7066 22.75227,9.1038 l 1.42677,1.4892 -87.28665,0 -87.28666,0 0.28205,-2.1028 z"
       id="path5018"
       inkscape:connector-curvature="0" />
  </g>
</svg>
